# xmcd
# 
# Track frame offsets:
#     182
#     18972
#     29870
#     42055
#     53695
#     65525
#     78992
#     88570
#     102060
#     115670
#     126342
#     137615
#     158302
#     171837
#     184865
#     194942
#     212035
# 
# Disc length: 3128
# 
# Revision: 8
# Processed by: cddbd v1.5.2PL0 Copyright (c) Steve Scherf et al.
# Submitted via: fre:ac v1.0.31
# 
DISCID=e30c3611
DTITLE=Various Artist - The Blues Collection (at Christmas)
DYEAR=1994
DGENRE=Blues
TTITLE0=Albert King - Don't Burn Down The Bridge
TTITLE1=Junior Parker - Mystery Train
TTITLE2=Billy Boy Arnold - I Wish You Would
TTITLE3=John Lee Hooker - Solid Sender
TTITLE4=Howlin' Wolf - Oh Red
TTITLE5=Walter Horton - Easy
TTITLE6=Memphis Slim - Rockin' The House
TTITLE7=Eddie Taylor - Big Town Playboy
TTITLE8=T-Bone Walker - T-Bone Shuffle
TTITLE9=Arthur "Big Boy" Crudup - That's All Right
TTITLE10=Frank Frost - Jelly Roll King
TTITLE11=Lightnin' Hopkins - Morning Blues
TTITLE12=Sonny Boy Williamson I - Good Morning, School Girl
TTITLE13=Calvin Leary - Cummins Prison Farm
TTITLE14=Jimmy Reed - Ain't That Lovin' You Baby
TTITLE15=Walter "Wolfman" Washington - Sure Enough It's You
TTITLE16=Luther Allison - Sweet Home Chicago
EXTD=
EXTT0=
EXTT1=
EXTT2=
EXTT3=
EXTT4=
EXTT5=
EXTT6=
EXTT7=
EXTT8=
EXTT9=
EXTT10=
EXTT11=
EXTT12=
EXTT13=
EXTT14=
EXTT15=
EXTT16=
PLAYORDER=
